<svg width="20" height="21" viewBox="0 0 20 21" fill="none" xmlns="http://www.w3.org/2000/svg">
<path d="M18.57 13.0267L20 11.5967L18.57 10.1667L15 13.7367L6.43 5.16675L10 1.59675L8.57 0.166748L7.14 1.59675L5.71 0.166748L3.57 2.30675L2.14 0.876748L0.71 2.30675L2.14 3.73675L0 5.87675L1.43 7.30675L0 8.73675L1.43 10.1667L5 6.59675L13.57 15.1667L10 18.7367L11.43 20.1667L12.86 18.7367L14.29 20.1667L16.43 18.0267L17.86 19.4567L19.29 18.0267L17.86 16.5967L20 14.4567L18.57 13.0267Z" fill="white"/>
</svg>
